# xmcd
#
# Track frame offsets:
#	150
#	18345
#	34357
#	47168
#	59207
#	72624
#	85187
#	99796
#	117123
#	132656
#	148704
#	161008
#
# Disc length: 2386 seconds
#
# Revision: 1
# Processed by: cddbd v1.5.2PL0 Copyright (c) Steve Scherf et al.
# Submitted via: audiograbber 1.83.01
#
DISCID=b109500c
DTITLE=Marian Burns - The Paris Session
DYEAR=2013
DGENRE=Country
TTITLE0=Marian Burns - My Valentine Song
TTITLE1=Marian Burns - Murray River Princess
TTITLE2=Marian Burns - Hours and Hours
TTITLE3=Marian Burns - Black Jelly Bean Reel
TTITLE4=Marian Burns - Tired Of Going There
TTITLE5=Marian Burns - Reels For Mr Perry
TTITLE6=Marian Burns - Finger In Two Many Pies
TTITLE7=Marian Burns - Time for A Change
TTITLE8=Marian Burns - Things Do Get Better
TTITLE9=Marian Burns - Because of You
TTITLE10=Marian Burns - Bobs Breakdown
TTITLE11=Marian Burns - Ashokan Farewell
EXTD=
EXTT0=
EXTT1=
EXTT2=
EXTT3=
EXTT4=
EXTT5=
EXTT6=
EXTT7=
EXTT8=
EXTT9=
EXTT10=
EXTT11=
PLAYORDER=
